<?xml version="1.0" encoding="utf-8"?>
<!-- Generator: Adobe Illustrator 26.0.3, SVG Export Plug-In . SVG Version: 6.00 Build 0)  -->
<svg version="1.0" id="katman_1" xmlns="http://www.w3.org/2000/svg" xmlns:xlink="http://www.w3.org/1999/xlink" x="0px" y="0px"
	 viewBox="0 0 600 450" style="enable-background:new 0 0 600 450;" xml:space="preserve">
<style type="text/css">
	.st0{fill:#6F1946;}
	.st1{fill:#738482;}
</style>
<g>
	<g>
		<path class="st0" d="M227.7,292.9h11.6v11c-1,0.9-4.5,4.6-11.9,4.6c-7.8,0-14.3-4.9-14.3-14.2c0-8.9,6.5-14.2,14.2-14.2
			c7.1,0,10.3,3.8,11.2,4.8l-3.5,3.1c-1.4-1.6-3.7-3.5-7.8-3.5c-5,0-8.9,3.6-8.9,9.8c0,6.2,3.9,9.8,9.1,9.8c5.1,0,6.7-2.1,6.7-2.1
			v-5.1h-6.6V292.9z"/>
		<path class="st0" d="M243.8,298.5c0-6.1,4.5-10.1,10.5-10.1c5.9,0,10.4,4,10.4,10.1c0,6.1-4.5,10-10.4,10
			C248.3,308.5,243.8,304.6,243.8,298.5z M254.3,292.5c-3.3,0-5.2,2.6-5.2,5.9c0,3.3,1.8,5.9,5.2,5.9c3.3,0,5.2-2.6,5.2-5.9
			C259.4,295,257.5,292.5,254.3,292.5z"/>
		<path class="st0" d="M274.5,280.5v8.6c0,1.4-0.1,2.3-0.1,2.3h0.1c1.7-2.2,3.9-3.1,6.5-3.1c5.6,0,9.1,4.4,9.1,10.1
			c0,5.5-3.6,10-9.5,10c-2.7,0-4.8-1-6.3-3.2h-0.1l-0.1,2.8h-4.7v-27.5H274.5z M274.4,298.4c0,3.2,2.1,6.1,5.4,6.1
			c3.3,0,5.2-2.8,5.2-6.1c0-3.3-2.1-6-5.4-6C276.5,292.4,274.4,294.8,274.4,298.4z"/>
		<path class="st0" d="M294.3,282.8c0-1.6,1.3-2.8,3.1-2.8s3.1,1.2,3.1,2.8c0,1.7-1.3,2.8-3.1,2.8S294.3,284.5,294.3,282.8z
			 M299.9,288.7V308h-5.1v-19.3H299.9z"/>
		<path class="st0" d="M315.5,304.6c2.6,0,4.9-1.2,5.8-2l2,2.8c-1.1,1.1-4,3.1-8.7,3.1c-5.8,0-10.1-3.5-10.1-9.8
			c0-6.2,4.5-10.3,10-10.3c5.9,0,9.5,3.9,9.5,9.1c0,1-0.1,2.6-0.1,2.6h-14.2C310.3,303.1,312.6,304.6,315.5,304.6z M309.7,296.7h9.3
			c-0.1-2.1-0.9-4.5-4.5-4.5C311.5,292.2,309.9,294.3,309.7,296.7z"/>
		<path class="st0" d="M333.5,288.7l-0.1,3.1h0.1c0.8-2.1,2.7-3.5,4.7-3.5c1.3,0,2,0.4,2,0.4l-0.4,4.4h-0.2
			c-0.6-0.2-1.4-0.2-2.1-0.2c-1.5,0-2.7,0.6-3.4,1.9c-0.5,1-0.7,2.3-0.7,3.7v9.5h-5.1v-19.3H333.5z"/>
		<path class="st0" d="M353.2,292.6c-3.2,0-4.2,2.6-4.2,5.9v9.6h-5.1v-19.3h5.1l0,2.9h0.1c1-2,3-3.3,5.8-3.3c5.5,0,6.9,3.6,6.9,8.2
			V308h-5.1v-10.3C356.6,294.8,356.1,292.6,353.2,292.6z"/>
		<path class="st0" d="M366.1,298.5c0-6.1,4.5-10.1,10.5-10.1c5.9,0,10.4,4,10.4,10.1c0,6.1-4.5,10-10.4,10
			C370.7,308.5,366.1,304.6,366.1,298.5z M376.6,292.5c-3.4,0-5.2,2.6-5.2,5.9c0,3.3,1.8,5.9,5.2,5.9c3.3,0,5.2-2.6,5.2-5.9
			C381.8,295,379.9,292.5,376.6,292.5z"/>
	</g>
	<g>
		<g>
			<path class="st0" d="M188.5,346.6c-1.6,2.5-3.9,3.5-6.6,3.5c-5.7,0-9.1-4.4-9.1-10.1c0-5.5,3.6-10,9.5-10c2.6,0,4.8,1,6.1,3h0.1
				c0-0.9,0-1.9,0-3.3v-7.6h5.1v27.5h-4.8l0-3H188.5z M188.5,339.9c0-3.2-2.1-6.1-5.4-6.1c-3.3,0-5.2,2.8-5.2,6.1c0,3.4,2.1,6,5.4,6
				C186.4,345.9,188.5,343.5,188.5,339.9z"/>
			<path class="st0" d="M209.1,346.1c2.6,0,4.9-1.2,5.8-2l2,2.8c-1.1,1.1-4,3.1-8.7,3.1c-5.8,0-10.1-3.5-10.1-9.8
				c0-6.2,4.5-10.3,10-10.3c5.9,0,9.5,3.9,9.5,9.1c0,1-0.1,2.6-0.1,2.6h-14.2C203.8,344.6,206.2,346.1,209.1,346.1z M203.3,338.3
				h9.3c-0.1-2.1-0.9-4.5-4.5-4.5C205,333.7,203.4,335.8,203.3,338.3z"/>
		</g>
		<g>
			<path class="st0" d="M254.8,328.8l-7.3,20.9h-3.6l-7.2-20.9h-0.1l-1.5,20.8h-5l2.3-27.5h6.8l6.7,19.7h0.1l6.7-19.7h6.6l2.4,27.5
				h-5.1L254.8,328.8L254.8,328.8z"/>
			<path class="st0" d="M266.2,324.4c0-1.6,1.3-2.8,3.1-2.8s3.1,1.2,3.1,2.8c0,1.7-1.3,2.8-3.1,2.8S266.2,326.1,266.2,324.4z
				 M271.8,330.3v19.3h-5.1v-19.3H271.8z"/>
			<path class="st0" d="M292.5,343.7l1.4,3.7c-0.4,0.4-2.4,2.6-7.5,2.6c-5.3,0-10.1-3.6-10.1-9.9c0-6.3,5-10.2,10.2-10.2
				c4.9,0,6.8,2,7.3,2.5l-1.4,3.8c-0.6-0.6-2.3-2-5.3-2c-3,0-5.5,2.1-5.5,5.7c0,3.5,2.4,5.9,5.7,5.9
				C290.7,345.7,292.5,343.7,292.5,343.7z"/>
			<path class="st0" d="M315.8,338.1v11.4h-5.1v-10.3c0-2.9-0.5-5.1-3.5-5.1c-3.2,0-4.2,2.6-4.2,5.9v9.6h-5.1v-27.5h5.1v11.1h0.1
				c1-2,3-3.3,5.8-3.3C314.4,329.9,315.8,333.5,315.8,338.1z"/>
			<path class="st0" d="M320.2,340c0-6.1,4.5-10.1,10.5-10.1c5.9,0,10.4,4,10.4,10.1c0,6.1-4.5,10-10.4,10
				C324.7,350,320.2,346.1,320.2,340z M330.7,334c-3.4,0-5.2,2.6-5.2,5.9c0,3.3,1.8,5.9,5.2,5.9c3.3,0,5.2-2.6,5.2-5.9
				C335.8,336.6,333.9,334,330.7,334z"/>
			<path class="st0" d="M350.9,350c-3.7,0-6.8-2-6.8-6.1c0-4,3.9-5.6,7.9-5.9l4.6-0.3v-0.5c0-2.5-1.6-3.6-4.3-3.6
				c-2.6,0-4.7,1-5.5,1.6l-1.6-3.3c1.5-0.9,4.2-2,7.5-2c3.4,0,5.4,0.9,6.8,2.2c1.4,1.4,2.1,3.1,2.1,6.4v11h-4.9l-0.1-2.2
				C356,348.8,353.8,350,350.9,350z M349.2,343.8c0,1.6,1.2,2.8,3.3,2.8c2,0,3.5-1.2,4.1-2.1v-3.5l-3.5,0.2
				C350.6,341.3,349.2,342.2,349.2,343.8z"/>
			<path class="st0" d="M382.1,343.7l1.4,3.7c-0.4,0.4-2.4,2.6-7.5,2.6c-5.3,0-10.1-3.6-10.1-9.9c0-6.3,5-10.2,10.2-10.2
				c4.9,0,6.8,2,7.3,2.5l-1.4,3.8c-0.6-0.6-2.3-2-5.3-2c-3,0-5.5,2.1-5.5,5.7c0,3.5,2.4,5.9,5.7,5.9
				C380.2,345.7,382.1,343.7,382.1,343.7z"/>
			<path class="st0" d="M393.4,350c-3.7,0-6.8-2-6.8-6.1c0-4,3.9-5.6,7.9-5.9l4.6-0.3v-0.5c0-2.5-1.6-3.6-4.3-3.6
				c-2.6,0-4.7,1-5.5,1.6l-1.6-3.3c1.5-0.9,4.2-2,7.5-2c3.4,0,5.4,0.9,6.8,2.2c1.4,1.4,2.1,3.1,2.1,6.4v11h-4.9l-0.1-2.2
				C398.5,348.8,396.2,350,393.4,350z M391.7,343.8c0,1.6,1.2,2.8,3.3,2.8c2,0,3.5-1.2,4.1-2.1v-3.5l-3.5,0.2
				C393,341.3,391.7,342.2,391.7,343.8z M400.9,322.1l-4.3,5.8h-3.7l3.3-5.8H400.9z"/>
			<path class="st0" d="M419,334.1c-3.2,0-4.2,2.6-4.2,5.9v9.6h-5.1v-19.3h5.1l0,2.9h0.1c1-2,3-3.3,5.8-3.3c5.5,0,6.9,3.6,6.9,8.2
				v11.4h-5.1v-10.3C422.4,336.4,421.9,334.1,419,334.1z"/>
		</g>
	</g>
	<g>
		<path class="st0" d="M319,144.1c0,0-0.1,0-0.1,0.1c0,0-0.1,0-0.1,0.1c0,0,0,0,0,0c0,0,0,0,0,0c0,0-0.1,0.1-0.1,0.1
			c0,0,0,0.1-0.1,0.1c0,0,0,0.1-0.1,0.1c0,0,0,0.1,0,0.1c0,0,0,0.1,0,0.1c0,0,0,0.1,0,0.1c0,0,0,0.1,0,0.1c0,0,0,0.1,0,0.1
			c0,0,0,0.1,0,0.1c0,0,0,0.1,0,0.1c0,0,0,0.1,0,0.1c0,0,0,0.1,0,0.1c0,0,0,0,0,0.1c0,0,0,0,0,0c0,0.1,0.1,0.2,0.2,0.2l0,0
			c0,0,0,0,0,0l4.9,5.6c0,0,0,0,0,0c0,0,0,0,0.1,0.1c0.1,0.1,0.1,0.1,0.2,0.1c0,0,0.1,0,0.1,0c0.1,0,0.1,0.1,0.2,0.1
			c0,0,0.1,0,0.1,0c0.1,0,0.2,0,0.3,0c0,0,0,0,0,0c0,0,0,0,0,0c0,0,0,0,0,0c0.1,0,0.2,0,0.2,0c0,0,0,0,0.1,0c0.1,0,0.1,0,0.2-0.1
			c0,0,0,0,0,0c0,0,2.8-1.4,5.4-1.4c2.6,0,5.4,1.3,5.4,1.4c0,0,0,0,0.1,0c0,0,0.1,0,0.1,0c0,0,0.1,0,0.1,0c0,0,0.1,0,0.1,0
			c0,0,0.1,0,0.1,0c0,0,0,0,0,0c0,0,0.1,0,0.1,0c0,0,0.1,0,0.1,0c0,0,0.1,0,0.1,0c0,0,0.1,0,0.1,0c0,0,0.1,0,0.1-0.1
			c0,0,0.1,0,0.1-0.1c0,0,0.1,0,0.1-0.1c0,0,0.1-0.1,0.1-0.1c0,0,0,0,0.1,0l5-5.6c0,0,0,0,0,0c0,0,0-0.1,0.1-0.1c0,0,0-0.1,0.1-0.1
			c0,0,0,0,0,0c0,0,0,0,0-0.1c0,0,0-0.1,0-0.1c0,0,0-0.1,0-0.1c0,0,0-0.1,0-0.1c0,0,0-0.1,0-0.1c0,0,0-0.1,0-0.1c0,0,0-0.1,0-0.1
			c0,0,0-0.1,0-0.1c0,0,0-0.1,0-0.1c0,0,0-0.1-0.1-0.1c0,0,0-0.1-0.1-0.1c0,0,0-0.1-0.1-0.1c0,0-0.1-0.1-0.1-0.1c0,0,0,0,0-0.1
			c0,0,0,0,0,0c0,0-0.1-0.1-0.1-0.1c0,0-0.1,0-0.1-0.1c0,0,0,0,0,0c-0.2-0.1-5.8-2.9-11.5-2.9C324.8,141.2,319.3,143.9,319,144.1
			C319,144.1,319,144.1,319,144.1z M339.4,145.6l-3.3,3.7c-1.2-0.5-3.4-1.2-5.6-1.2c-2.3,0-4.5,0.8-5.6,1.2l-3.3-3.7
			c1.9-0.8,5.4-2,8.9-2C334,143.6,337.5,144.8,339.4,145.6z"/>
		<path class="st0" d="M335.5,153.6c-0.1-0.1-2.5-1.2-5-1.2c-2.5,0-4.9,1.2-5,1.2c-0.6,0.3-0.8,1-0.5,1.6c0.3,0.6,1,0.8,1.6,0.5
			c0,0,2-1,3.9-1c1.9,0,3.9,1,3.9,1c0.2,0.1,0.4,0.1,0.5,0.1c0.4,0,0.9-0.2,1.1-0.7C336.4,154.6,336.1,153.9,335.5,153.6z"/>
		<path class="st0" d="M318.4,110.6c0,0,0,0.1,0,0.1c0,0,0,0.1,0,0.1c0,0,0,0.1,0,0.1c0,0,0,0,0,0.1c0,0,0,0,0,0c0,0,0,0.1,0.1,0.1
			c0,0,0,0.1,0.1,0.1c0,0,0,0,0,0l5,5.6c0,0,0,0,0,0c0,0,0,0,0.1,0.1c0.1,0.1,0.1,0.1,0.2,0.1c0,0,0.1,0,0.1,0
			c0.1,0,0.1,0.1,0.2,0.1c0,0,0.1,0,0.1,0c0.1,0,0.2,0,0.3,0c0,0,0,0,0,0c0,0,0,0,0,0c0,0,0,0,0,0c0.1,0,0.2,0,0.2,0c0,0,0,0,0.1,0
			c0.1,0,0.1,0,0.2-0.1c0,0,0,0,0,0c0,0,2.8-1.4,5.4-1.4c2.6,0,5.4,1.3,5.4,1.4c0,0,0,0,0.1,0c0,0,0.1,0,0.1,0c0,0,0.1,0,0.1,0
			c0,0,0.1,0,0.1,0c0,0,0.1,0,0.1,0c0,0,0,0,0,0c0,0,0.1,0,0.1,0c0,0,0.1,0,0.1,0c0,0,0.1,0,0.1,0c0,0,0.1,0,0.1,0
			c0,0,0.1,0,0.1-0.1c0,0,0.1,0,0.1-0.1c0,0,0.1,0,0.1-0.1c0,0,0.1-0.1,0.1-0.1c0,0,0,0,0.1,0l4.9-5.6c0,0,0,0,0,0l0,0
			c0.1-0.1,0.1-0.2,0.2-0.2c0,0,0,0,0,0c0,0,0,0,0-0.1c0,0,0-0.1,0-0.1c0,0,0-0.1,0-0.1c0,0,0-0.1,0-0.1c0,0,0-0.1,0-0.1
			c0,0,0-0.1,0-0.1c0,0,0-0.1,0-0.1c0,0,0-0.1,0-0.1c0,0,0-0.1,0-0.1c0,0,0-0.1-0.1-0.1c0,0,0-0.1-0.1-0.1c0,0,0-0.1-0.1-0.1
			c0,0-0.1-0.1-0.1-0.1c0,0,0,0,0-0.1c0,0,0,0,0,0c0,0-0.1-0.1-0.1-0.1c0,0-0.1,0-0.1-0.1c0,0,0,0,0,0c-0.2-0.1-5.8-2.9-11.5-2.9
			c-5.7,0-11.2,2.7-11.5,2.9c0,0,0,0,0,0c0,0-0.1,0-0.1,0.1c0,0-0.1,0-0.1,0.1c0,0,0,0,0,0c0,0,0,0,0,0c0,0-0.1,0.1-0.1,0.1
			c0,0,0,0.1-0.1,0.1c0,0,0,0.1-0.1,0.1c0,0,0,0.1,0,0.1c0,0,0,0.1,0,0.1c0,0,0,0.1,0,0.1c0,0,0,0.1,0,0.1s0,0.1,0,0.1
			C318.4,110.5,318.4,110.6,318.4,110.6z M339.4,110.9l-3.3,3.7c-1.2-0.5-3.4-1.2-5.6-1.2c-2.3,0-4.5,0.8-5.6,1.2l-3.3-3.7
			c1.9-0.8,5.4-2,8.9-2C334,109,337.5,110.2,339.4,110.9z"/>
		<path class="st0" d="M326.6,121.1c0,0,2-1,3.9-1s3.9,1,3.9,1c0.2,0.1,0.4,0.1,0.5,0.1c0.4,0,0.9-0.2,1.1-0.7
			c0.3-0.6,0.1-1.3-0.5-1.6c-0.1-0.1-2.5-1.2-5-1.2c-2.5,0-4.9,1.2-5,1.2c-0.6,0.3-0.8,1-0.5,1.6C325.2,121.2,326,121.4,326.6,121.1
			z"/>
		<path class="st0" d="M304.4,126.9c0,0-0.1,0-0.1,0.1c0,0-0.1,0-0.1,0.1c0,0,0,0,0,0c0,0,0,0,0,0c0,0-0.1,0.1-0.1,0.1
			c0,0,0,0.1-0.1,0.1c0,0,0,0.1-0.1,0.1c0,0,0,0.1,0,0.1c0,0,0,0.1,0,0.1c0,0,0,0.1,0,0.1c0,0,0,0.1,0,0.1c0,0,0,0.1,0,0.1
			c0,0,0,0.1,0,0.1c0,0,0,0.1,0,0.1c0,0,0,0.1,0,0.1c0,0,0,0.1,0,0.1c0,0,0,0,0,0.1c0,0,0,0,0,0c0,0.1,0.1,0.2,0.2,0.2l0,0
			c0,0,0,0,0,0l4.9,5.6c0,0,0,0,0,0c0,0,0,0,0.1,0.1c0.1,0.1,0.1,0.1,0.2,0.1c0,0,0.1,0,0.1,0c0.1,0,0.1,0.1,0.2,0.1
			c0,0,0.1,0,0.1,0c0.1,0,0.2,0,0.3,0c0,0,0,0,0,0c0,0,0,0,0,0c0,0,0,0,0,0c0.1,0,0.2,0,0.2,0c0,0,0,0,0.1,0c0.1,0,0.1,0,0.2-0.1
			c0,0,0,0,0,0c0,0,2.8-1.4,5.4-1.4c2.6,0,5.4,1.3,5.4,1.4c0,0,0,0,0.1,0c0,0,0.1,0,0.1,0c0,0,0.1,0,0.1,0c0.1,0,0.1,0,0.2,0
			c0,0,0,0,0.1,0c0,0,0,0,0,0c0,0,0.1,0,0.1,0c0,0,0.1,0,0.1,0c0,0,0.1,0,0.1,0c0,0,0.1,0,0.1,0c0,0,0.1,0,0.1-0.1
			c0,0,0.1,0,0.1-0.1c0,0,0.1,0,0.1-0.1c0,0,0.1-0.1,0.1-0.1c0,0,0,0,0.1,0l5-5.6c0,0,0,0,0,0c0,0,0-0.1,0.1-0.1c0,0,0-0.1,0.1-0.1
			c0,0,0,0,0,0c0,0,0,0,0-0.1c0,0,0-0.1,0-0.1c0,0,0-0.1,0-0.1c0,0,0-0.1,0-0.1c0,0,0-0.1,0-0.1c0,0,0-0.1,0-0.1c0,0,0-0.1,0-0.1
			c0,0,0-0.1,0-0.1c0,0,0-0.1,0-0.1c0,0,0-0.1-0.1-0.1c0,0,0-0.1-0.1-0.1c0,0,0-0.1-0.1-0.1c0,0-0.1-0.1-0.1-0.1c0,0,0,0,0-0.1
			c0,0,0,0,0,0c0,0-0.1-0.1-0.1-0.1c0,0-0.1,0-0.1-0.1c0,0,0,0,0,0c-0.2-0.1-5.8-2.9-11.5-2.9C310.2,124.1,304.7,126.8,304.4,126.9
			C304.5,126.9,304.4,126.9,304.4,126.9z M324.8,128.5l-3.3,3.7c-1.2-0.5-3.4-1.2-5.6-1.2c-2.3,0-4.5,0.8-5.6,1.2l-3.3-3.7
			c1.9-0.8,5.4-2,8.9-2C319.4,126.5,322.9,127.7,324.8,128.5z"/>
		<path class="st0" d="M320.9,136.5c-0.1-0.1-2.5-1.2-5-1.2s-4.9,1.2-5,1.2c-0.6,0.3-0.8,1-0.5,1.6c0.3,0.6,1,0.8,1.6,0.5
			c0,0,2-1,3.9-1s3.9,1,3.9,1c0.2,0.1,0.4,0.1,0.5,0.1c0.4,0,0.9-0.2,1.1-0.7C321.8,137.5,321.5,136.8,320.9,136.5z"/>
		<path class="st0" d="M340.4,209.5c-0.2-0.1-4.2-3.2-8.4-3.2c-3.2,0-6.3,1.8-7.6,2.7c-1.4-0.9-4.5-2.7-7.6-2.7
			c-4.2,0-8.2,3.1-8.4,3.2c-0.5,0.4-0.6,1.2-0.2,1.7c0.2,0.3,0.6,0.5,1,0.5c0.3,0,0.5-0.1,0.7-0.3c0,0,3.5-2.7,6.9-2.7
			c3.3,0,6.9,2.7,6.9,2.7c0,0,0.1,0,0.1,0.1c0,0,0.1,0,0.1,0c0,0,0.1,0,0.1,0.1c0,0,0.1,0,0.1,0c0,0,0.1,0,0.1,0c0,0,0.1,0,0.1,0
			c0,0,0.1,0,0.1,0c0,0,0.1,0,0.1,0c0,0,0.1,0,0.1,0c0,0,0.1,0,0.1,0c0,0,0.1,0,0.1,0c0,0,0.1,0,0.1-0.1c0,0,0.1,0,0.1-0.1
			c0,0,0.1,0,0.1-0.1c0,0,3.5-2.7,6.9-2.7c3.3,0,6.9,2.7,6.9,2.7c0.2,0.2,0.5,0.3,0.7,0.3c0.4,0,0.7-0.2,1-0.5
			C341.1,210.7,341,209.9,340.4,209.5z"/>
		<path class="st0" d="M308,204.7C308,204.7,308,204.7,308,204.7c0,0.1,0,0.2,0.1,0.2c0,0,0,0.1,0,0.1c0,0,0,0.1,0.1,0.1
			c0,0,0,0.1,0.1,0.1c0,0,0,0,0,0c0,0,0,0,0,0c0,0,0.1,0.1,0.1,0.1c0,0,0,0,0.1,0c0.1,0,0.1,0.1,0.2,0.1c0,0,0,0,0,0
			c0.2,0.1,0.3,0.1,0.5,0.1c0,0,0.1,0,0.1,0c0,0,0.1,0,0.1,0c0,0,0.1,0,0.1,0c0,0,0.1,0,0.1,0c0,0,0.1,0,0.1-0.1c0,0,0,0,0.1,0
			c0,0,0.1,0,0.1-0.1c0,0,0,0,0,0c0,0,3.5-2.7,6.9-2.7s6.9,2.7,6.9,2.7c0,0,0,0,0,0c0,0,0.1,0.1,0.1,0.1c0,0,0,0,0.1,0c0,0,0,0,0,0
			c0,0,0.1,0,0.1,0.1c0,0,0,0,0.1,0c0,0,0,0,0,0c0,0,0,0,0,0c0,0,0.1,0,0.1,0c0,0,0.1,0,0.1,0c0,0,0,0,0.1,0c0,0,0,0,0.1,0
			c0,0,0,0,0.1,0c0,0,0,0,0,0c0,0,0,0,0.1,0c0,0,0.1,0,0.1,0c0,0,0.1,0,0.1,0c0,0,0.1,0,0.1,0c0,0,0,0,0.1,0c0,0,0,0,0,0
			c0,0,0,0,0,0c0,0,0.1,0,0.1-0.1c0,0,0,0,0,0c0,0,3.5-2.7,6.9-2.7c3.3,0,6.9,2.7,6.9,2.7c0,0,0,0,0,0c0,0,0.1,0.1,0.1,0.1
			c0,0,0,0,0.1,0c0.1,0,0.1,0,0.2,0.1c0,0,0,0,0.1,0c0.1,0,0.1,0,0.2,0c0,0,0.1,0,0.1,0c0,0,0,0,0.1,0c0,0,0.1,0,0.1,0
			c0,0,0.1,0,0.1,0c0.1,0,0.1,0,0.1,0c0,0,0.1,0,0.1,0c0,0,0.1,0,0.1-0.1c0,0,0,0,0.1,0c0,0,0.1-0.1,0.1-0.1c0,0,0,0,0.1-0.1
			c0,0,0.1-0.1,0.1-0.1c0,0,0,0,0,0c0,0,0,0,0,0c0,0,0.1-0.1,0.1-0.1c0,0,0,0,0-0.1c0,0,0-0.1,0-0.1c0,0,0-0.1,0-0.1
			c0,0,0-0.1,0-0.1c0,0,0-0.1,0-0.1c0,0,0,0,0,0v-17.8c0,0,0,0,0-0.1c0,0,0-0.1,0-0.1c0,0,0-0.1,0-0.1c0,0,0-0.1,0-0.1
			c0,0,0-0.1,0-0.1c0,0,0-0.1-0.1-0.1c0,0,0-0.1-0.1-0.1c0,0-0.1-0.1-0.1-0.1c0,0-0.1-0.1-0.1-0.1c0,0,0,0-0.1-0.1
			c-0.2-0.1-4.2-3.2-8.4-3.2c-3.2,0-6.3,1.8-7.6,2.7c-1.4-0.9-4.5-2.7-7.6-2.7c-4.2,0-8.2,3.1-8.4,3.2c0,0,0,0-0.1,0.1
			c0,0,0,0-0.1,0.1c0,0-0.1,0.1-0.1,0.1c0,0,0,0,0,0.1c0,0-0.1,0.1-0.1,0.1c0,0,0,0,0,0.1c0,0,0,0.1,0,0.1c0,0,0,0.1,0,0.1
			c0,0.1,0,0.1,0,0.2c0,0,0,0,0,0.1v17.8c0,0,0,0,0,0C307.9,204.6,307.9,204.6,308,204.7z M338.5,187.3v15c-1.6-0.9-4-2-6.4-2
			c-2.4,0-4.8,1.1-6.4,2v-15c1.1-0.7,3.8-2.4,6.4-2.4C334.7,184.9,337.4,186.6,338.5,187.3z M323.2,187.3v15c-1.6-0.9-4-2-6.4-2
			c-2.4,0-4.8,1.1-6.4,2v-15c1.1-0.7,3.8-2.4,6.4-2.4C319.4,184.9,322.1,186.6,323.2,187.3z"/>
		<path class="st0" d="M309.8,87.3c-2.8-6.2-6-12-9.7-12c-3.8,0-6.9,5.8-9.7,12l-0.5,1.1c-1.3,2.8-2.7,5.8-2.7,8.8c0,2,1.9,4,3.8,4
			c0.7,0,1.7-0.4,3.6-1.1c1.8-0.7,4.2-1.6,5.5-1.6c1.3,0,3.7,1,5.5,1.6c1.9,0.7,2.9,1.1,3.6,1.1c2,0,3.8-1.9,3.8-4
			c0-3-1.4-6-2.7-8.8L309.8,87.3z M309.2,98.7c-0.4,0-1.7-0.6-2.7-0.9c-2.2-0.8-4.6-1.8-6.4-1.8s-4.2,1-6.4,1.8
			c-1,0.4-2.4,0.9-2.7,0.9c-0.6,0-1.4-0.8-1.4-1.5c0-2.5,1.2-5,2.5-7.7l0.5-1.1c1.2-2.6,4.8-10.6,7.5-10.6c2.7,0,6.3,8,7.5,10.6
			l0.5,1.1c1.3,2.7,2.5,5.3,2.5,7.7C310.6,97.9,309.8,98.7,309.2,98.7z"/>
		<path class="st0" d="M283.6,97.5c0.7,0,1.2-0.5,1.2-1.2s-0.5-1.2-1.2-1.2h-32c-0.7,0-1.2,0.5-1.2,1.2v123.9c0,2.8,1.9,5.1,4.9,6.2
			l34.6,9.8c3.1,0.9,6.6,2,9.5,4.3c0.1,0,0.1,0.1,0.2,0.1c0,0,0,0,0.1,0c0.1,0,0.1,0,0.2,0.1c0,0,0,0,0.1,0c0.1,0,0.2,0,0.2,0
			c0,0,0,0,0,0c0,0,0,0,0,0c0.1,0,0.2,0,0.2,0c0,0,0,0,0.1,0c0.1,0,0.1,0,0.2-0.1c0,0,0,0,0.1,0c0.1,0,0.1-0.1,0.2-0.1
			c2.9-2.2,6.5-3.4,9.5-4.3l34.7-9.8c3-1,4.9-3.4,4.9-6.1V96.3c0-0.7-0.5-1.2-1.2-1.2h-32c-0.7,0-1.2,0.5-1.2,1.2s0.5,1.2,1.2,1.2
			h30.8v68h-46.2v-4.8c0-0.2,0.1-0.4,0-0.6v-58c0-0.7-0.5-1.2-1.2-1.2c-0.7,0-1.2,0.5-1.2,1.2v19.8c-0.3,0.3-0.6,0.7-1,1.1
			c-2.2,2.4-6.1,6.5-9.5,14.1c-3.4-6.7-5.3-9.9-6-10.7c-0.4-0.4-0.8-0.8-1.2-1.1c0,0,0,0,0,0c-1.4-1.1-2.5-1.7-3.2-2l0,0
			c0-0.1,0-0.3,0-0.4c1.9,0,3.5-0.5,3.6-0.6l1-0.3l-1.1-5.3l1.5-2l-0.5-0.7c-0.1-0.2-2.2-3.3-3.8-5.5c0,0,0,0,0,0
			c-0.5-0.7-1-1.3-1.4-1.7c-2-2.1-6.3-1.6-9.5,1.1c-4.4,3.7-3,9.6-1.7,12.2c-0.3,0-0.7-0.1-1.2-0.3c-1.8-0.6-2.7-1.3-2.8-1.3
			c-0.5-0.4-1.3-0.3-1.7,0.2c-0.4,0.5-0.3,1.3,0.2,1.7c0.1,0.1,1.3,1,3.5,1.7c0.3,0.1,0.6,0.2,0.8,0.2c-1.7,0.4-3.7,1.2-5.1,2.6
			c-1.8,1.8-5.1,6.2-7.2,9V97.5H283.6z M260.3,139l1.9,7.8c-0.9,1.9-4.8,10.1-6.7,18.3c0,0.2,0,0.3,0,0.5h-2.7v-16.9L260.3,139z
			 M268,124.2l4.9,12.4v0.4c-4.3-3.4-6.5-9.9-7.2-12.5C266.6,124.4,267.4,124.3,268,124.2z M279.5,151.6c-1-0.9-1.6-1.7-2.1-2.3
			c0.5-0.1,1-0.2,1.5-0.4c1.5-0.3,2.7-0.6,4-1.1C281.9,149.1,280.7,150.4,279.5,151.6z M275.4,150.7c0.5,0.7,1.2,1.6,2.3,2.6
			c-0.7,0.7-1.5,1.3-2.3,1.9V150.7z M273.4,144c0.8-0.5,1.4-0.6,1.9-0.3c0.7,0.4,1,1.4,0.9,1.9c-0.1,0.6-0.6,1.2-1.3,1.7
			c-0.1,0-0.1,0.1-0.2,0.1c-0.6,0.4-1.3,0.6-1.8,0.6c0,0,0,0,0,0c-0.6,0-0.9-0.5-1.4-1.5l-0.1-0.3
			C271.2,145.7,271.4,145.4,273.4,144z M273.4,159.4c0,0.1,0.1,0.1,0.1,0.2l6,6h-17c2.9-3.3,5.6-4.2,8-5
			C271.5,160.2,272.5,159.9,273.4,159.4z M298.9,167.9v23.6h-6.5l-1.4-17.1c0,0,0-0.1,0-0.1c0,0,0-0.1,0-0.1c0,0,0-0.1,0-0.1
			c0,0,0,0,0-0.1c0-0.1-0.1-0.1-0.1-0.2c0,0,0,0,0,0c0-0.1-0.1-0.1-0.1-0.1c0,0,0,0,0,0c0,0-0.1-0.1-0.1-0.1c0,0,0,0-0.1,0
			c0,0-0.1,0-0.1-0.1c0,0-0.1,0-0.1,0c0,0-0.1,0-0.1,0c0,0-0.1,0-0.1,0c0,0-0.1,0-0.1,0c0,0-0.1,0-0.1,0h-3.6c0,0-0.1,0-0.1,0
			c0,0-0.1,0-0.1,0c0,0-0.1,0-0.1,0c0,0-0.1,0-0.1,0c0,0-0.1,0-0.1,0c0,0-0.1,0-0.1,0.1c0,0,0,0-0.1,0c0,0-0.1,0.1-0.1,0.1
			c0,0,0,0,0,0c0,0-0.1,0.1-0.1,0.1c0,0,0,0,0,0c0,0-0.1,0.1-0.1,0.2c0,0,0,0,0,0.1c0,0,0,0.1,0,0.1c0,0,0,0.1,0,0.1
			c0,0,0,0.1,0,0.1l-1.4,17.1H277v-6.1c0,0,0,0,0-0.1c0,0,0-0.1,0-0.1c0,0,0-0.1,0-0.1c0,0,0-0.1,0-0.1c0,0,0-0.1-0.1-0.1
			c0,0,0,0,0-0.1c0,0,0,0,0,0c0,0-0.1-0.1-0.1-0.1c0,0,0-0.1-0.1-0.1c0,0-0.1,0-0.1-0.1c0,0-0.1-0.1-0.1-0.1c0,0-0.1,0-0.1-0.1
			c0,0-0.1,0-0.1-0.1c0,0-0.1,0-0.1,0c0,0-0.1,0-0.1,0c0,0-0.1,0-0.1,0c0,0-0.1,0-0.1,0c0,0,0,0,0,0c0,0,0,0-0.1,0c0,0-0.1,0-0.1,0
			c0,0-0.1,0-0.1,0c0,0-0.1,0-0.1,0c0,0-0.1,0-0.1,0.1c0,0,0,0-0.1,0l-10.3,6.2v-5.1c0,0,0,0,0-0.1c0,0,0-0.1,0-0.1c0,0,0-0.1,0-0.1
			c0,0,0-0.1,0-0.1c0,0,0-0.1-0.1-0.1c0,0,0,0,0-0.1c0,0,0,0,0,0c0,0-0.1-0.1-0.1-0.1c0,0,0-0.1-0.1-0.1c0,0-0.1-0.1-0.1-0.1
			c0,0-0.1-0.1-0.1-0.1c0,0-0.1,0-0.1-0.1c0,0-0.1,0-0.1-0.1c0,0-0.1,0-0.1,0c0,0-0.1,0-0.1,0c0,0-0.1,0-0.1,0c0,0-0.1,0-0.1,0
			c0,0,0,0,0,0c0,0,0,0-0.1,0c0,0-0.1,0-0.1,0c0,0-0.1,0-0.1,0c0,0-0.1,0-0.1,0c0,0-0.1,0-0.1,0.1c0,0,0,0-0.1,0l-10.3,6.2v-22.6
			H298.9z M256,224c-1.6-0.5-3.2-1.8-3.2-3.8v-26.8l9.7-5.8v5.1c0,0,0,0,0,0.1c0,0,0,0.1,0,0.1c0,0,0,0.1,0,0.1c0,0,0,0.1,0,0.1
			c0,0,0,0.1,0.1,0.1c0,0,0,0,0,0.1c0,0,0,0,0,0c0.1,0.1,0.1,0.2,0.2,0.2c0,0,0,0,0,0c0.1,0.1,0.1,0.1,0.2,0.1c0,0,0,0,0.1,0
			c0.1,0,0.1,0.1,0.2,0.1c0,0,0,0,0.1,0c0.1,0,0.2,0,0.3,0c0,0,0,0,0,0c0,0,0,0,0,0c0,0,0,0,0,0c0.1,0,0.2,0,0.3,0c0,0,0,0,0.1,0
			c0.1,0,0.2-0.1,0.2-0.1c0,0,0,0,0,0l10.3-6.2v5.1c0,0.7,0.5,1.2,1.2,1.2h8.8c0,0,0,0,0,0c0,0,0,0,0,0c0.1,0,0.2,0,0.2,0
			c0,0,0.1,0,0.1,0c0,0,0.1,0,0.1,0c0,0,0.1,0,0.1,0c0,0,0.1,0,0.1-0.1c0,0,0.1,0,0.1-0.1c0,0,0.1-0.1,0.1-0.1c0,0,0,0,0.1-0.1
			c0,0,0.1-0.1,0.1-0.1c0,0,0-0.1,0.1-0.1c0,0,0-0.1,0.1-0.1c0,0,0-0.1,0-0.1c0,0,0-0.1,0-0.1c0,0,0-0.1,0-0.1c0,0,0-0.1,0-0.1
			l1.4-17.1h1.4l1.4,17.1c0,0,0,0.1,0,0.1c0,0,0,0.1,0,0.1c0,0,0,0.1,0,0.1c0,0,0,0.1,0,0.1c0,0,0,0.1,0.1,0.1c0,0,0,0.1,0.1,0.1
			c0,0,0.1,0.1,0.1,0.1c0,0,0,0.1,0.1,0.1c0,0,0.1,0.1,0.1,0.1c0,0,0.1,0,0.1,0.1c0,0,0.1,0,0.1,0.1c0,0,0.1,0,0.1,0
			c0,0,0.1,0,0.1,0c0,0,0.1,0,0.1,0c0.1,0,0.2,0,0.2,0c0,0,0,0,0,0c0,0,0,0,0,0h7.6v43.3c-2.8-1.7-5.7-2.6-8.4-3.4L256,224z
			 M347.5,167.9v52.2c0,2-1.7,3.3-3.2,3.8l-34.6,9.8c-2.6,0.7-5.6,1.7-8.4,3.4v-69.3H347.5z M282.4,165.5c0-0.3-0.1-0.6-0.4-0.8
			l-6.5-6.6c1.3-1,2.7-2.1,4-3.3c1.8,1.3,4.1,2.6,7.2,3.9c6.1,2.6,9.7,3.3,11.7,3.3c0.2,0,0.3,0,0.5,0v3.5H282.4z M298.9,125.5v34.1
			c-1.1,0.1-4.2-0.1-11.2-3c-2.7-1.1-4.7-2.3-6.3-3.4c3.3-3.3,6.3-7,7.6-10.6C292.2,133.2,296.2,128.4,298.9,125.5z M287.2,140.1
			c-0.2,0.5-0.4,1.1-0.6,1.6c-0.2,0.7-0.6,1.4-0.9,2.1c-2.5,1.7-4.3,2.2-7.3,2.9c0.1-0.2,0.1-0.4,0.2-0.7c0.1-0.9-0.1-2-0.7-2.9
			l6.1-3.8c0.6-0.4,0.7-1.1,0.4-1.7c-0.4-0.6-1.1-0.7-1.7-0.4l-6.7,4.2c-0.2-0.1-0.4-0.1-0.6-0.2v-0.6c3.6-3.5,5.2-8.8,5.8-11.8
			C281.9,130,283.6,132.9,287.2,140.1z M279.1,126.7c-0.3,1.7-1.2,6.4-3.7,10.1v-0.3l2.1-10.8C277.9,125.9,278.4,126.2,279.1,126.7z
			 M279.8,120.2c-1.5,0.3-4.4,0.5-6.1-1.7c-0.4-0.5-1.2-0.6-1.7-0.2c-0.5,0.4-0.6,1.2-0.2,1.7c1.1,1.4,2.5,2.2,3.9,2.5
			c0,0.1,0,0.1-0.1,0.2l-1.9,9.5l-3.8-9.7c0,0,0,0,0,0c0,0-0.8-2.4,1.3-7.1c1.4-3,4.6-4.4,6-4.9c1,1.3,2,2.9,2.8,4l-1.1,1.5
			L279.8,120.2z M269.4,109.6c2.5-2.1,5.4-2.1,6.2-1.3c0,0,0.1,0.1,0.1,0.2c-2,0.8-5.2,2.5-6.7,5.9c-0.5,1.2-0.9,2.3-1.2,3.2
			C267.2,115.8,266.5,112.1,269.4,109.6z M252.8,137.9c0.1-0.1,6.4-8.9,8.9-11.4c0.5-0.5,1-0.8,1.7-1.1c0.9,3.2,3.7,11.2,9.6,14.6
			v1.6c-0.3,0.1-0.7,0.3-1,0.6c-1.6,1.1-3.7,2.5-2.8,5.1l0.2,0.4c0.4,0.9,1.3,2.9,3.5,2.9c0,0,0,0,0.1,0v6.3
			c-0.9,0.6-1.9,0.9-3.2,1.4c-2.8,0.9-6.2,2-9.8,6.6c-0.2,0.2-0.3,0.5-0.3,0.7h-1.8c2.2-8.8,6.7-17.9,6.7-18c0,0,0,0,0-0.1
			c0,0,0-0.1,0-0.1c0,0,0-0.1,0-0.1c0,0,0-0.1,0-0.1c0,0,0-0.1,0-0.1c0,0,0-0.1,0-0.1c0,0,0-0.1,0-0.1c0,0,0,0,0-0.1L262,136
			c0,0,0,0,0,0c0,0,0-0.1,0-0.1c0,0,0-0.1,0-0.1c0,0,0-0.1-0.1-0.1c0,0,0-0.1-0.1-0.1c0,0-0.1-0.1-0.1-0.1c0,0-0.1-0.1-0.1-0.1
			c0,0,0,0,0,0c0,0,0,0-0.1,0c0,0-0.1,0-0.1-0.1c0,0-0.1,0-0.1-0.1c0,0-0.1,0-0.1,0c0,0-0.1,0-0.1,0c0,0-0.1,0-0.1,0
			c-0.1,0-0.1,0-0.2,0c0,0-0.1,0-0.1,0c-0.1,0-0.1,0-0.2,0c0,0,0,0,0,0c0,0,0,0,0,0c-0.1,0-0.1,0-0.2,0.1c0,0,0,0-0.1,0
			c0,0-0.1,0-0.1,0.1c0,0-0.1,0-0.1,0.1c0,0-0.1,0.1-0.1,0.1c0,0-0.1,0.1-0.1,0.1c0,0,0,0,0,0l-7.1,9.1L252.8,137.9
			C252.8,137.9,252.8,137.9,252.8,137.9z"/>
		<path class="st0" d="M358.4,85.3h-44.9c-0.7,0-1.2,0.5-1.2,1.2s0.5,1.2,1.2,1.2h43.7v132.4c0,6.1-4.2,11.1-11.3,13.4l-34,9.7
			c0,0,0,0,0,0c0,0,0,0,0,0c-6.6,2-10.1,4.8-11.8,6.5c-1.6-1.7-5.2-4.4-11.8-6.5c0,0,0,0,0,0c0,0,0,0,0,0l-34-9.7
			c-7.1-2.3-11.3-7.3-11.3-13.4V87.8h43.7c0.7,0,1.2-0.5,1.2-1.2s-0.5-1.2-1.2-1.2h-44.9c-0.7,0-1.2,0.5-1.2,1.2v133.6
			c0,7.1,5,13.1,13,15.7l34,9.7c6.2,1.9,10,4.7,11.5,6.7c0,0,0,0,0,0c0,0,0.1,0.1,0.1,0.1c0,0,0,0,0.1,0.1c0,0,0,0,0,0
			c0.1,0,0.1,0.1,0.2,0.1c0,0,0,0,0,0c0.1,0,0.1,0,0.2,0.1c0,0,0,0,0.1,0c0.1,0,0.2,0,0.2,0c0,0,0,0,0,0c0,0,0,0,0,0
			c0.1,0,0.2,0,0.2,0c0,0,0,0,0.1,0c0.1,0,0.1,0,0.2-0.1c0,0,0,0,0,0c0.1,0,0.1-0.1,0.2-0.1c0,0,0,0,0,0c0,0,0,0,0.1-0.1
			c0,0,0.1-0.1,0.1-0.1c0,0,0,0,0,0c1.5-2,5.3-4.8,11.5-6.7l34-9.7c8-2.6,13-8.6,13-15.7V86.5C359.6,85.9,359.1,85.3,358.4,85.3z"/>
		<path class="st0" d="M280.9,72.4c0,0,0,0.1,0,0.1c0,0,0,0.1,0,0.1c0,0,0,0.1,0,0.1c0,0,0,0.1,0,0.1c0,0,0,0.1,0,0.1
			c0,0,0,0.1,0,0.1c0,0,0,0.1,0,0.1c0,0,0,0.1,0,0.1c0,0,0,0,0,0c0,0,0,0,0,0.1c0,0,0,0,0,0.1c0,0.1,0.1,0.1,0.1,0.1c0,0,0,0,0,0
			c0,0.1,0.1,0.1,0.1,0.2c0,0,0,0,0.1,0c0,0,0.1,0.1,0.1,0.1c0,0,0,0,0,0c0,0,0,0,0,0c0.1,0,0.2,0.1,0.2,0.1c0,0,0,0,0.1,0
			c0.1,0,0.2,0,0.3,0c0,0,0,0,0,0c0,0,0,0,0,0c0,0,0,0,0,0c0.1,0,0.2,0,0.3,0c0,0,0,0,0.1,0c0,0,0.1,0,0.1,0l9-3.4
			c2.6,1.4,6.6,2.8,12.1,2.8c10.2,0,15.4-5.1,15.6-5.3c0.2-0.2,0.4-0.5,0.4-0.9c0-0.3-0.1-0.6-0.4-0.9c-0.2-0.2-5.4-5.3-15.6-5.3
			c-5.5,0-9.5,1.5-12.1,2.8l-9-3.4c0,0,0,0-0.1,0c0,0-0.1,0-0.1,0c0,0-0.1,0-0.1,0c0,0-0.1,0-0.1,0c0,0-0.1,0-0.1,0c0,0-0.1,0-0.1,0
			c0,0-0.1,0-0.1,0c0,0-0.1,0-0.1,0c0,0-0.1,0-0.1,0.1c0,0,0,0,0,0c0,0,0,0,0,0c0,0-0.1,0.1-0.1,0.1c0,0-0.1,0-0.1,0.1
			c0,0-0.1,0.1-0.1,0.1c0,0,0,0.1-0.1,0.1c0,0,0,0.1-0.1,0.1c0,0,0,0.1-0.1,0.1c0,0,0,0,0,0.1c0,0,0,0,0,0c0,0,0,0.1,0,0.1
			c0,0,0,0.1,0,0.1c0,0,0,0.1,0,0.1c0,0,0,0.1,0,0.1c0,0,0,0.1,0,0.1c0,0,0,0.1,0,0.1c0,0,0,0.1,0,0.1c0,0,0,0.1,0,0.1c0,0,0,0,0,0
			l2.8,4.9L280.9,72.4C280.9,72.4,280.9,72.4,280.9,72.4z M316.3,67.4c-1.9,1.3-6.1,3.7-12.8,3.7c-5.4,0-9.2-1.5-11.4-2.8
			c0,0,0,0,0,0c-0.1,0-0.1-0.1-0.2-0.1c0,0,0,0,0,0c-0.1,0-0.1,0-0.2,0c0,0-0.1,0-0.1,0c0,0-0.1,0-0.1,0c0,0-0.1,0-0.1,0
			c0,0-0.1,0-0.1,0c-0.1,0-0.1,0-0.2,0c0,0,0,0,0,0l-6.4,2.4l1.8-3.2l-1.8-3.2l6.5,2.4c0,0,0,0,0.1,0c0,0,0.1,0,0.1,0
			c0,0,0.1,0,0.1,0c0,0,0.1,0,0.1,0c0,0,0,0,0.1,0c0,0,0.1,0,0.1,0c0,0,0,0,0.1,0c0.1,0,0.1,0,0.2,0c0,0,0,0,0,0
			c0.1,0,0.1,0,0.2-0.1c0,0,0,0,0,0c2.2-1.3,6-2.8,11.4-2.8C310.2,63.7,314.4,66.1,316.3,67.4z"/>
		<path class="st0" d="M285.4,208.8h-1.3c-0.1-0.7-0.3-1.3-0.5-1.9l1.1-0.6c0.6-0.3,0.8-1.1,0.4-1.7c-0.3-0.6-1.1-0.8-1.7-0.4
			l-1.1,0.6c-0.4-0.5-0.9-1-1.4-1.4l0.6-1.1c0.3-0.6,0.1-1.3-0.4-1.7c-0.6-0.3-1.3-0.1-1.7,0.4l-0.6,1.1c-0.6-0.2-1.2-0.4-1.9-0.5
			v-1.3c0-0.7-0.5-1.2-1.2-1.2c-0.7,0-1.2,0.5-1.2,1.2v1.3c-0.7,0.1-1.3,0.3-1.9,0.5l-0.6-1.1c-0.3-0.6-1.1-0.8-1.7-0.4
			c-0.6,0.3-0.8,1.1-0.4,1.7l0.6,1.1c-0.5,0.4-1,0.9-1.4,1.4l-1.1-0.6c-0.6-0.3-1.3-0.1-1.7,0.4c-0.3,0.6-0.1,1.3,0.4,1.7l1.1,0.6
			c-0.2,0.6-0.4,1.2-0.5,1.9h-1.3c-0.7,0-1.2,0.5-1.2,1.2c0,0.7,0.5,1.2,1.2,1.2h1.3c0.1,0.7,0.3,1.3,0.5,1.9l-1.1,0.6
			c-0.6,0.3-0.8,1.1-0.4,1.7c0.2,0.4,0.6,0.6,1.1,0.6c0.2,0,0.4-0.1,0.6-0.2l1.1-0.6c0.4,0.5,0.9,1,1.4,1.4l-0.6,1.1
			c-0.3,0.6-0.1,1.3,0.4,1.7c0.2,0.1,0.4,0.2,0.6,0.2c0.4,0,0.8-0.2,1.1-0.6l0.6-1.1c0.6,0.2,1.2,0.4,1.9,0.5v1.3
			c0,0.7,0.5,1.2,1.2,1.2c0.7,0,1.2-0.5,1.2-1.2v-1.3c0.7-0.1,1.3-0.3,1.9-0.5l0.6,1.1c0.2,0.4,0.6,0.6,1.1,0.6
			c0.2,0,0.4-0.1,0.6-0.2c0.6-0.3,0.8-1.1,0.4-1.7l-0.6-1.1c0.5-0.4,1-0.9,1.4-1.4l1.1,0.6c0.2,0.1,0.4,0.2,0.6,0.2
			c0.4,0,0.8-0.2,1.1-0.6c0.3-0.6,0.1-1.3-0.4-1.7l-1.1-0.6c0.2-0.6,0.4-1.2,0.5-1.9h1.3c0.7,0,1.2-0.5,1.2-1.2
			C286.7,209.4,286.1,208.8,285.4,208.8z M275.8,216.1c-3.3,0-6-2.7-6-6c0-3.3,2.7-6,6-6s6,2.7,6,6
			C281.9,213.4,279.2,216.1,275.8,216.1z"/>
	</g>
	<g>
		<path class="st1" d="M186.9,382.8v4.4H185v-10h1.9v4h4.7v-4h1.9v10h-1.9v-4.4H186.9z"/>
		<path class="st1" d="M198.6,382.2c0-3.2,2.4-5.2,5.2-5.2c2.9,0,5.2,1.9,5.2,5.2c0,3.2-2.3,5.2-5.2,5.2
			C200.9,387.4,198.6,385.4,198.6,382.2z M203.8,378.7c-1.9,0-3.3,1.3-3.3,3.5s1.5,3.5,3.3,3.5c1.9,0,3.3-1.3,3.3-3.5
			S205.7,378.7,203.8,378.7z"/>
		<path class="st1" d="M216,382.3v4.9h-1.8v-10h2l5,7.3c0,0,0-1.2,0-2.4v-4.9h1.8v10h-1.9l-5.1-7.4C216,379.8,216,381.1,216,382.3z"
			/>
		<path class="st1" d="M234.8,377.2v1.6h-4.3v2.5h4.1v1.6h-4.1v2.8h4.4v1.6h-6.3v-10H234.8z"/>
		<path class="st1" d="M246.6,384.3c0,1.9-1.4,3.1-3.5,3.1c-1.7,0-2.9-0.8-3.5-1.6l0.9-1.4c0.8,0.9,1.7,1.3,2.7,1.3
			c0.9,0,1.6-0.4,1.6-1.3c0-0.8-0.5-1-1.4-1.4l-1.6-0.6c-1.1-0.4-1.8-1.2-1.8-2.4c0-1.7,1.4-2.9,3.5-2.9c1.4,0,2.5,0.6,3,1.2
			l-0.9,1.4c-0.6-0.6-1.4-1-2.3-1c-0.8,0-1.5,0.4-1.5,1.1c0,0.7,0.6,1,1.1,1.2l1.7,0.7C246,382.3,246.6,383,246.6,384.3z"/>
		<path class="st1" d="M250.6,378.7v-1.5h7.4v1.5h-2.7v8.5h-1.9v-8.5H250.6z"/>
		<path class="st1" d="M264.6,377.2v10h-1.9v-10H264.6z"/>
		<path class="st1" d="M273.4,377.2c1.7,0,3,0.6,3.8,1.3c0.8,0.7,1.6,1.8,1.6,3.7c0,1.9-0.8,3.1-1.6,3.8c-0.8,0.7-2.1,1.2-3.8,1.2
			h-3.2v-10H273.4z M275.9,384.8c0.5-0.5,1-1.2,1-2.6c0-1.3-0.5-2.1-1-2.6c-0.5-0.4-1.3-0.8-2.4-0.8h-1.4v6.8h1.4
			C274.6,385.6,275.4,385.2,275.9,384.8z"/>
		<path class="st1" d="M285.4,384.9l-0.9,2.3h-2l3.9-10h1.8l3.9,10h-2.1l-0.9-2.3H285.4z M288.9,383.4l-1.5-4.1l-1.5,4.1H288.9z"/>
		<path class="st1" d="M300.1,377.2c1.7,0,3,0.6,3.8,1.3c0.8,0.7,1.6,1.8,1.6,3.7c0,1.9-0.8,3.1-1.6,3.8c-0.8,0.7-2.1,1.2-3.8,1.2
			h-3.2v-10H300.1z M302.6,384.8c0.5-0.5,1-1.2,1-2.6c0-1.3-0.5-2.1-1-2.6c-0.5-0.4-1.3-0.8-2.4-0.8h-1.4v6.8h1.4
			C301.3,385.6,302.1,385.2,302.6,384.8z"/>
		<path class="st1" d="M316,377.2h2.1l2.3,4.3l2.3-4.3h2.1l-3.5,5.9v4.1h-1.9v-4.1L316,377.2z"/>
		<path class="st1" d="M335,378.7v-1.5h7.4v1.5h-2.7v8.5h-1.9v-8.5H335z"/>
		<path class="st1" d="M349,383.1v4.1h-1.9v-10h3.2c1.1,0,1.9,0.2,2.5,0.7c0.6,0.5,1.1,1.2,1.1,2.2c0,1.7-0.9,2.4-2.2,2.8l2.7,4.3
			h-2.2l-2.4-4.1H349z M351.4,381.3c0.4-0.3,0.6-0.6,0.6-1.2c0-0.6-0.2-0.9-0.6-1.2c-0.4-0.3-0.8-0.3-1.4-0.3h-1v3h1
			C350.6,381.7,351.1,381.6,351.4,381.3z"/>
		<path class="st1" d="M360.9,384.9l-0.9,2.3h-2l3.9-10h1.8l3.9,10h-2.1l-0.9-2.3H360.9z M364.4,383.4l-1.5-4.1l-1.5,4.1H364.4z"/>
		<path class="st1" d="M375.6,377.2c0.8,0,1.6,0.1,2.2,0.4c0.8,0.4,1.3,1,1.3,2.1c0,1.2-0.9,1.9-1.6,2.2v0c1.3,0.3,2.1,1.1,2.1,2.4
			c0,1.1-0.5,1.9-1.2,2.3c-0.6,0.4-1.5,0.6-2.5,0.6h-3.7v-10H375.6z M376.6,381.1c0.3-0.2,0.6-0.6,0.6-1.2c0-0.9-0.7-1.3-1.7-1.3
			h-1.3v2.7h1.2C376,381.4,376.3,381.3,376.6,381.1z M377.2,385.4c0.3-0.2,0.6-0.7,0.6-1.2c0-0.6-0.2-0.9-0.6-1.2
			c-0.4-0.3-0.8-0.3-1.3-0.3h-1.5v3h1.6C376.4,385.7,376.8,385.7,377.2,385.4z"/>
		<path class="st1" d="M386.5,384.9l-0.9,2.3h-2l3.9-10h1.8l3.9,10h-2.1l-0.9-2.3H386.5z M390,383.4l-1.5-4.1l-1.5,4.1H390z"/>
		<path class="st1" d="M397.3,388.6c0.7,0,0.8-0.6,0.8-1.5v-9.9h1.9v9.9c0,1-0.2,1.7-0.5,2.2c-0.3,0.4-0.9,0.8-1.7,0.8
			c-0.6,0-1.2-0.1-1.3-0.2l0.1-1.4C396.7,388.5,397,388.6,397.3,388.6z"/>
		<path class="st1" d="M405.1,382.2c0-3.2,2.4-5.2,5.2-5.2c2.9,0,5.2,1.9,5.2,5.2c0,3.2-2.3,5.2-5.2,5.2
			C407.5,387.4,405.1,385.4,405.1,382.2z M410.4,378.7c-1.9,0-3.3,1.3-3.3,3.5s1.5,3.5,3.3,3.5c1.9,0,3.3-1.3,3.3-3.5
			S412.2,378.7,410.4,378.7z"/>
	</g>
</g>
</svg>
